<?xml version="1.0" encoding="utf-8"?>
<!-- Generator: Adobe Illustrator 16.0.0, SVG Export Plug-In . SVG Version: 6.00 Build 0)  -->
<!DOCTYPE svg PUBLIC "-//W3C//DTD SVG 1.1//EN" "http://www.w3.org/Graphics/SVG/1.1/DTD/svg11.dtd">
<svg version="1.1" id="Layer_1" xmlns="http://www.w3.org/2000/svg" xmlns:xlink="http://www.w3.org/1999/xlink" x="0px" y="0px"
	 width="600px" height="113px" viewBox="0 332.5 600 113" enable-background="new 0 332.5 600 113" xml:space="preserve">
<g id="XMLID_104_">
	<path id="XMLID_105_" fill="#404040" d="M89.276,347.065c0.589,1.025,0.925,2.214,0.92,3.481c-0.005,1.267-0.35,2.452-0.946,3.473
		l7.887,0.03l0.026-6.955L89.276,347.065z"/>
	<polygon id="XMLID_106_" fill="#404040" points="34.079,346.858 37.52,353.826 69.322,353.945 69.348,346.99 	"/>
	
		<rect id="XMLID_107_" x="69.335" y="343.528" transform="matrix(-1 -0.0037 0.0037 -1 144.3199 701.23)" fill="#FF6A00" width="6.955" height="13.906"/>
	<path id="XMLID_108_" fill="#FFAA19" d="M89.276,347.065c-1.195-2.083-3.434-3.489-6.007-3.498
		c-3.84-0.015-6.953-0.026-6.953-0.026l-0.052,13.906c0,0,3.113,0.012,6.953,0.026c2.573,0.01,4.823-1.381,6.034-3.454
		c0.597-1.021,0.941-2.207,0.946-3.473C90.201,349.279,89.865,348.09,89.276,347.065z"/>
	<polygon id="XMLID_109_" fill="#404040" points="113.405,342.52 108.77,342.502 108.796,335.549 101.842,335.523 101.816,342.477 
		105.292,342.489 105.231,358.715 101.755,358.702 101.703,372.608 108.657,372.634 108.709,358.728 113.344,358.745 	"/>
	
		<rect id="XMLID_110_" x="97.15" y="342.474" transform="matrix(-1 -0.0037 0.0037 -1 201.103 701.5491)" fill="#606060" width="8.111" height="16.226"/>
	<polygon id="XMLID_138_" fill="#BFBFBF" points="43.553,414.112 26.168,414.048 24.598,420.994 43.527,421.064 	"/>
	<polygon id="XMLID_169_" fill="#BFBFBF" points="43.5,428.02 23.027,427.943 21.456,434.89 43.475,434.972 	"/>
	<polygon id="XMLID_197_" fill="#A3A3A3" points="43.475,434.972 65.493,435.054 63.974,428.096 43.5,428.02 	"/>
	<polygon id="XMLID_221_" fill="#A3A3A3" points="43.527,421.064 62.455,421.136 60.936,414.178 43.553,414.112 	"/>
	<path id="XMLID_222_" fill="#FFAA19" d="M43.604,400.206c-3.827-0.018-7.502-2.147-9.312-5.812l-6.159-12.467
		c-1.186,2.339-1.863,4.982-1.874,7.785c-0.036,9.6-0.065,17.383-0.065,17.383l17.384,0.064L43.604,400.206z"/>
	<path id="XMLID_223_" fill="#FF6A00" d="M48.263,399.127l-3.08-6.236c-1.722,0.851-3.807,0.144-4.657-1.578
		c-0.851-1.721-0.144-3.806,1.577-4.656l-16.419-33.245c-1.725,0.852-3.81,0.146-4.659-1.576c-0.267-0.538-0.381-1.112-0.358-1.673
		c0.046-1.233,0.749-2.406,1.935-2.992l-3.079-6.235c-5.165,2.552-7.284,8.807-4.733,13.972l13.344,27.016l6.159,12.467
		c1.81,3.665,5.486,5.795,9.312,5.812l-0.026,6.953l17.383,0.065c0,0,0.029-7.783,0.065-17.383
		c0.032-8.532-6.088-15.645-14.19-17.15l6.158,12.466C55.546,390.321,53.427,396.576,48.263,399.127z"/>
	
		<rect id="XMLID_224_" x="16.807" y="434.922" transform="matrix(-1 -0.0037 0.0037 -1 58.6305 876.9074)" fill="#606060" width="26.654" height="6.954"/>
	
		<rect id="XMLID_225_" x="43.462" y="435.021" transform="matrix(-1 -0.0037 0.0037 -1 111.9385 877.2062)" fill="#404040" width="26.654" height="6.954"/>
	
		<rect id="XMLID_226_" x="21.494" y="421.023" transform="matrix(-1 -0.0037 0.0037 -1 63.4261 849.1201)" fill="#8F8F8F" width="22.02" height="6.955"/>
	
		<rect id="XMLID_227_" x="43.514" y="421.105" transform="matrix(-1 -0.0037 0.0037 -1 107.4637 849.3662)" fill="#606060" width="22.018" height="6.955"/>
	
		<rect id="XMLID_228_" x="26.181" y="407.126" transform="matrix(-1 -0.0037 0.0037 -1 68.2245 821.3325)" fill="#8F8F8F" width="17.384" height="6.954"/>
	
		<rect id="XMLID_229_" x="43.566" y="407.191" transform="matrix(-1 -0.0038 0.0038 -1 102.9686 821.5297)" fill="#606060" width="17.383" height="6.954"/>
	<path id="XMLID_230_" fill="#FF3D0D" d="M33.492,345.67c-2.55-5.165-8.805-7.283-13.97-4.733l3.079,6.235
		c1.722-0.85,3.808-0.144,4.657,1.578c0.266,0.539,0.38,1.112,0.358,1.672c-0.046,1.234-0.749,2.404-1.933,2.991l16.419,33.245
		c1.723-0.851,3.807-0.145,4.658,1.576c0.851,1.722,0.144,3.807-1.578,4.657l3.08,6.236c5.164-2.552,7.284-8.806,4.732-13.972
		l-6.158-12.466l-9.317-18.864l-3.441-6.967L33.492,345.67z"/>
	<circle id="XMLID_231_" fill="#404040" cx="43.644" cy="389.775" r="3.477"/>
	<path id="XMLID_232_" fill="#404040" d="M20.666,350.166c-0.023,0.56,0.092,1.134,0.358,1.672c0.849,1.721,2.935,2.427,4.656,1.578
		c1.187-0.589,1.89-1.759,1.936-2.993c0.021-0.561-0.092-1.134-0.358-1.673c-0.849-1.722-2.935-2.428-4.657-1.578
		C21.415,347.758,20.712,348.931,20.666,350.166z"/>
</g>
<g>
	<path fill="#5E5E5E" d="M124.544,432.399c0,1.78-0.396,3.363-1.189,4.748s-1.932,2.554-3.418,3.503s-3.271,1.672-5.351,2.167
		c-2.081,0.493-4.391,0.74-6.927,0.74H95.351v-39.599h14.21c2.141,0,4.053,0.239,5.738,0.715c1.684,0.477,3.101,1.132,4.251,1.967
		c1.149,0.834,2.031,1.806,2.646,2.918c0.614,1.112,0.921,2.323,0.921,3.634c0,2.461-0.684,4.486-2.051,6.075
		c-1.368,1.589-3.36,2.781-5.976,3.574c1.347,0.238,2.595,0.613,3.746,1.127c1.149,0.516,2.15,1.168,3.002,1.96
		s1.516,1.722,1.992,2.79C124.306,429.787,124.544,431.014,124.544,432.399z M107.717,419.774c1.704,0,3.092-0.391,4.162-1.175
		c1.071-0.784,1.605-1.899,1.605-3.347c0-1.286-0.466-2.28-1.397-2.984c-0.932-0.703-2.229-1.056-3.894-1.056h-3.33v8.562H107.717z
		 M114.912,431.637c0-1.516-0.604-2.663-1.813-3.441c-1.209-0.776-2.883-1.166-5.024-1.166h-3.211v9.275h3.449
		c2.378,0,4.073-0.458,5.083-1.376S114.912,432.913,114.912,431.637z"/>
	<path d="M140.419,443.558h-9.751v-39.599h9.751V443.558z"/>
	<path d="M158.196,403.959v31.869h14.567v7.729h-24.318v-39.599H158.196z"/>
	<path d="M187.449,403.959v31.869h14.567v7.729h-24.318v-39.599H187.449z"/>
	<path d="M239.176,403.245c2.061,0,4.132,0.197,6.214,0.59c2.081,0.395,3.874,0.965,5.38,1.712l-1.427,7.152
		c-1.189-0.476-2.547-0.882-4.073-1.219c-1.527-0.337-3.043-0.505-4.549-0.505c-4.043,0-7.234,1.055-9.573,3.166
		c-2.339,2.11-3.508,5.317-3.508,9.617c0,4.302,1.168,7.507,3.508,9.617c2.338,2.11,5.53,3.165,9.573,3.165
		c1.506,0,3.022-0.167,4.549-0.505c1.525-0.336,2.884-0.742,4.073-1.219l1.427,7.153c-1.507,0.747-3.3,1.317-5.38,1.711
		c-2.082,0.393-4.153,0.59-6.214,0.59c-3.488,0-6.561-0.516-9.216-1.545c-2.656-1.03-4.875-2.459-6.659-4.282
		c-1.784-1.822-3.131-3.983-4.043-6.48c-0.912-2.497-1.367-5.232-1.367-8.205c0-2.974,0.455-5.709,1.367-8.206
		c0.912-2.496,2.259-4.656,4.043-6.48c1.784-1.822,4.003-3.249,6.659-4.28C232.615,403.762,235.688,403.245,239.176,403.245z"/>
	<path d="M281.807,435.889h-15.162l-2.438,7.669h-10.049l14.746-39.599h10.703l14.746,39.599h-10.049L281.807,435.889z
		 M269.143,428.158h10.167l-5.054-16.708L269.143,428.158z"/>
	<path d="M308.682,403.959v31.869h14.566v7.729H298.93v-39.599H308.682z"/>
	<path d="M347.031,403.245c2.061,0,4.133,0.197,6.214,0.59c2.081,0.395,3.874,0.965,5.381,1.712l-1.427,7.152
		c-1.189-0.476-2.548-0.882-4.073-1.219s-3.042-0.505-4.548-0.505c-4.043,0-7.234,1.055-9.573,3.166
		c-2.339,2.11-3.509,5.317-3.509,9.617c0,4.302,1.17,7.507,3.509,9.617s5.53,3.165,9.573,3.165c1.506,0,3.022-0.167,4.548-0.505
		c1.525-0.336,2.884-0.742,4.073-1.219l1.427,7.153c-1.507,0.747-3.3,1.317-5.381,1.711c-2.081,0.393-4.153,0.59-6.214,0.59
		c-3.488,0-6.561-0.516-9.216-1.545c-2.656-1.03-4.875-2.459-6.658-4.282c-1.784-1.822-3.132-3.983-4.044-6.48
		s-1.367-5.232-1.367-8.205c0-2.974,0.455-5.709,1.367-8.206c0.912-2.496,2.26-4.656,4.044-6.48c1.783-1.822,4.002-3.249,6.658-4.28
		C340.471,403.762,343.543,403.245,347.031,403.245z"/>
	<path d="M388.533,403.959h9.751v25.329c0,4.678-1.477,8.345-4.429,10.999c-2.954,2.656-7.067,3.984-12.338,3.984
		c-5.271,0-9.385-1.328-12.338-3.984c-2.953-2.654-4.43-6.321-4.43-10.999v-25.329h9.751v25.626c0,2.26,0.595,3.984,1.784,5.173
		c1.189,1.189,2.933,1.783,5.232,1.783c2.299,0,4.043-0.594,5.232-1.783c1.189-1.188,1.783-2.913,1.783-5.173V403.959z"/>
	<path d="M415.646,403.959v31.869h14.566v7.729h-24.318v-39.599H415.646z"/>
	<path d="M460.713,435.889h-15.161l-2.438,7.669h-10.049l14.746-39.599h10.702l14.746,39.599H463.21L460.713,435.889z
		 M448.049,428.158h10.167l-5.054-16.708L448.049,428.158z"/>
	<path d="M503.166,403.959v7.729h-10.643v31.869h-9.751v-31.869h-10.644v-7.729H503.166z"/>
	<path d="M545.559,423.759c0,2.814-0.456,5.461-1.367,7.937c-0.912,2.479-2.229,4.648-3.954,6.511
		c-1.724,1.864-3.836,3.341-6.333,4.43c-2.496,1.091-5.352,1.636-8.562,1.636s-6.075-0.545-8.592-1.636
		c-2.517-1.089-4.638-2.565-6.362-4.43c-1.724-1.862-3.032-4.031-3.924-6.51c-0.892-2.477-1.338-5.123-1.338-7.938
		s0.446-5.46,1.338-7.938c0.892-2.477,2.2-4.647,3.924-6.511c1.725-1.863,3.846-3.339,6.362-4.43
		c2.517-1.09,5.382-1.636,8.592-1.636s6.065,0.546,8.562,1.636c2.497,1.09,4.609,2.566,6.333,4.43
		c1.725,1.863,3.042,4.034,3.954,6.511C545.103,418.299,545.559,420.944,545.559,423.759z M525.343,436.541
		c1.704,0,3.21-0.315,4.519-0.95c1.309-0.634,2.408-1.517,3.301-2.646c0.891-1.129,1.555-2.476,1.991-4.043
		c0.436-1.564,0.654-3.278,0.654-5.143c0-1.862-0.219-3.577-0.654-5.144c-0.437-1.564-1.101-2.913-1.991-4.043
		c-0.893-1.13-1.992-2.012-3.301-2.646s-2.814-0.951-4.519-0.951c-1.744,0-3.261,0.317-4.548,0.951
		c-1.289,0.634-2.379,1.516-3.271,2.646s-1.556,2.479-1.992,4.043c-0.437,1.567-0.654,3.281-0.654,5.144
		c0,1.864,0.218,3.578,0.654,5.143c0.437,1.567,1.101,2.914,1.992,4.044c0.892,1.129,1.981,2.012,3.271,2.646
		C522.082,436.226,523.599,436.541,525.343,436.541z"/>
	<path d="M581.293,416.505c0,2.656-0.744,4.975-2.229,6.956c-1.486,1.982-3.559,3.488-6.214,4.519l13.021,15.578H573.86
		l-10.881-13.734h-1.783v13.734h-9.752v-39.599h12.605c2.457,0,4.736,0.259,6.838,0.773c2.101,0.516,3.925,1.288,5.47,2.318
		c1.547,1.031,2.755,2.329,3.628,3.895C580.855,412.512,581.293,414.364,581.293,416.505z M571.898,416.683
		c0-1.783-0.694-3.101-2.081-3.953c-1.388-0.853-3.33-1.279-5.827-1.279h-2.794v11.119h2.378c2.616,0,4.657-0.515,6.125-1.546
		C571.164,419.993,571.898,418.547,571.898,416.683z"/>
</g>
</svg>
